HIERARCHY
ROOT Hips
{
	OFFSET 0.000000 0.000000 0.000000
	CHANNELS 6 Xposition Yposition Zposition Xrotation Yrotation Zrotation
	JOINT LeftUpLeg_virtual
	{
		OFFSET 0.000000 0.000000 0.000000
		CHANNELS 3 Xrotation Yrotation Zrotation
		JOINT LeftUpLeg
		{
			OFFSET 10.205400 -3.823500 0.155100
			CHANNELS 3 Xrotation Yrotation Zrotation
			JOINT LeftLeg
			{
				OFFSET 0.708757 -12.982077 0.567790
				CHANNELS 3 Xrotation Yrotation Zrotation
				JOINT LeftFoot
				{
					OFFSET -0.708756 -10.717838 -2.184338
					CHANNELS 3 Xrotation Yrotation Zrotation
					JOINT LeftToeBase
					{
						OFFSET 0.108149 -7.191104 7.560241
						CHANNELS 3 Xrotation Yrotation Zrotation
						JOINT LeftToe_End
						{
							OFFSET 0.070230 0.081724 4.490308
							CHANNELS 3 Xrotation Yrotation Zrotation
							End Site
							{
								OFFSET 0 0 0
							}
						}
					}
				}
			}
		}
	}
	JOINT RightUpLeg_virtual
	{
		OFFSET 0.000000 0.000000 0.000000
		CHANNELS 3 Xrotation Yrotation Zrotation
		JOINT RightUpLeg
		{
			OFFSET -10.205400 -3.823500 0.005500
			CHANNELS 3 Xrotation Yrotation Zrotation
			JOINT RightLeg
			{
				OFFSET -0.708756 -12.982134 0.610632
				CHANNELS 3 Xrotation Yrotation Zrotation
				JOINT RightFoot
				{
					OFFSET 0.708754 -10.717769 -1.945823
					CHANNELS 3 Xrotation Yrotation Zrotation
					JOINT RightToeBase
					{
						OFFSET -0.108140 -7.191069 7.372968
						CHANNELS 3 Xrotation Yrotation Zrotation
						JOINT RightToe_End
						{
							OFFSET -0.070227 0.081735 4.479403
							CHANNELS 3 Xrotation Yrotation Zrotation
							End Site
							{
								OFFSET 0 0 0
							}
						}
					}
				}
			}
		}
	}
	JOINT Spine_virtual
	{
		OFFSET 0.000000 0.000000 0.000000
		CHANNELS 3 Xrotation Yrotation Zrotation
		JOINT Spine
		{
			OFFSET 0.000000 6.876099 0.125700
			CHANNELS 3 Xrotation Yrotation Zrotation
			JOINT Spine1
			{
				OFFSET 0.000000 5.730043 0.104720
				CHANNELS 3 Xrotation Yrotation Zrotation
				JOINT Spine1_split
				{
					OFFSET 0.000000 5.730043 0.104720
					CHANNELS 3 Xrotation Yrotation Zrotation
					JOINT Spine2
					{
						OFFSET 0.000000 5.730043 0.104720
						CHANNELS 3 Xrotation Yrotation Zrotation
						JOINT Neck_virtual
						{
							OFFSET 0.000000 0.000000 0.000000
							CHANNELS 3 Xrotation Yrotation Zrotation
							JOINT Neck
							{
								OFFSET 0.000000 10.314075 0.188496
								CHANNELS 3 Xrotation Yrotation Zrotation
								JOINT Head
								{
									OFFSET 0.000000 7.643700 -2.377400
									CHANNELS 3 Xrotation Yrotation Zrotation
									JOINT HeadTop_End
									{
										OFFSET 0.000000 43.788605 -13.619600
										CHANNELS 3 Xrotation Yrotation Zrotation
										End Site
										{
											OFFSET 0 0 0
										}
									}
								}
							}
						}
						JOINT LeftShoulder_virtual
						{
							OFFSET 0.000000 0.000000 0.000000
							CHANNELS 3 Xrotation Yrotation Zrotation
							JOINT LeftShoulder
							{
								OFFSET 2.196100 4.412489 0.087492
								CHANNELS 3 Xrotation Yrotation Zrotation
								JOINT LeftShoulder_split
								{
									OFFSET 2.196100 4.412489 0.087492
									CHANNELS 3 Xrotation Yrotation Zrotation
									JOINT LeftArm
									{
										OFFSET 8.771219 -2.981674 -0.026999
										CHANNELS 3 Xrotation Yrotation Zrotation
										JOINT LeftForeArm
										{
											OFFSET 8.512804 0.000000 -0.000000
											CHANNELS 3 Xrotation Yrotation Zrotation
											JOINT LeftHand
											{
												OFFSET 18.484802 0.000000 -0.000000
												CHANNELS 3 Xrotation Yrotation Zrotation
												End Site
												{
													OFFSET 0 0 0
												}
											}
										}
									}
								}
							}
						}
						JOINT RightShoulder_virtual
						{
							OFFSET 0.000000 0.000000 0.000000
							CHANNELS 3 Xrotation Yrotation Zrotation
							JOINT RightShoulder
							{
								OFFSET -2.196100 4.412496 0.070690
								CHANNELS 3 Xrotation Yrotation Zrotation
								JOINT RightShoulder_split
								{
									OFFSET -2.196100 4.412496 0.070690
									CHANNELS 3 Xrotation Yrotation Zrotation
									JOINT RightArm
									{
										OFFSET -8.771282 -2.981682 -0.094208
										CHANNELS 3 Xrotation Yrotation Zrotation
										JOINT RightForeArm
										{
											OFFSET -8.494598 0.000000 0.000000
											CHANNELS 3 Xrotation Yrotation Zrotation
											JOINT RightHand
											{
												OFFSET -18.483803 0.000000 0.000001
												CHANNELS 3 Xrotation Yrotation Zrotation
												End Site
												{
													OFFSET 0 0 0
												}
											}
										}
									}
								}
							}
						}
					}
				}
			}
		}
	}
}
MOTION
Frames: 11
Frame Time: 0.03333333
2.314610 33.247574 -2.401670 0.000000 0.000000 0.000000 2.685782 2.248914 1.655093 -12.514524 6.728045 10.012672 28.942250 -1.032236 2.002012 -18.870122 7.645497 -18.998074 -0.084912 -4.812165 0.483019 0.000000 0.000000 0.000000 2.839160 2.398008 1.696905 -11.440879 1.000045 -4.594120 29.679925 7.040622 -1.303838 -26.146886 -8.245050 12.646014 1.473039 3.051631 -5.707228 0.000000 0.000000 0.000000 2.573327 4.658298 1.167365 -0.931852 -3.714520 0.143720 -0.741895 -0.315197 0.640563 0.145209 -0.195493 0.010058 0.000000 0.000000 0.000000 -0.039662 1.765673 0.732903 1.981511 4.188228 1.102598 -9.246196 -21.771214 -5.026224 0.000000 0.000000 0.000000 -1.123070 0.344450 0.331645 -0.896623 -11.123343 -9.405513 -2.201115 1.177902 -2.468197 22.534123 -21.312892 -67.965805 -0.881685 -21.690845 -0.495013 0.000000 0.000000 0.000000 -0.395570 0.619229 0.933186 -2.244173 0.677801 11.785353 -6.976153 -0.747489 0.106525 10.250524 28.951430 66.167751 -6.710783 11.947394 3.234593 0.000000 0.000000 0.000000 
2.349398 33.283234 -2.402272 0.000000 0.000000 0.000000 2.626865 2.275513 1.641425 -12.426574 6.264652 9.907018 28.580548 -0.966692 1.999342 -19.223269 7.730530 -18.435217 0.247643 -4.804788 0.449141 0.000000 0.000000 0.000000 2.762358 2.147749 1.664749 -11.076560 0.998434 -4.517904 29.453644 6.925842 -1.447207 -25.805107 -8.211895 12.560352 0.553771 3.127768 -5.600755 0.000000 0.000000 0.000000 2.602532 4.525583 1.102029 -1.042873 -3.655534 0.160704 -0.763358 -0.265626 0.638937 0.135846 -0.131942 0.020444 0.000000 0.000000 0.000000 -0.022411 1.806713 0.732149 1.946699 4.183930 1.243143 -9.650396 -21.485402 -5.283261 0.000000 0.000000 0.000000 -1.070968 0.393279 0.362833 -0.885587 -11.128245 -9.500261 -2.268815 1.059820 -2.541472 22.424163 -21.367215 -67.952965 -0.951246 -21.578560 -0.581290 0.000000 0.000000 0.000000 -0.391562 0.662014 0.919092 -2.288251 0.861979 11.794700 -6.500720 -0.639329 0.065051 10.169024 28.992193 66.059192 -6.682952 11.895235 3.267573 0.000000 0.000000 0.000000 
2.387244 33.316528 -2.394688 0.000000 0.000000 0.000000 2.473306 2.094449 1.561535 -12.387312 5.960090 9.813674 28.328806 -0.876299 2.077935 -19.522614 7.872018 -18.177285 0.930890 -4.801272 0.434267 0.000000 0.000000 0.000000 2.699947 1.746620 1.558679 -10.673863 0.858791 -4.380927 29.303902 6.742266 -1.622090 -25.863331 -7.861392 12.658470 0.128513 3.254203 -5.865209 0.000000 0.000000 0.000000 2.545128 4.295129 0.926903 -1.048271 -3.465890 0.185163 -0.743946 -0.181031 0.643611 0.134817 -0.121888 0.004873 0.000000 0.000000 0.000000 0.065280 1.885643 0.731558 1.972240 4.152117 1.474378 -9.955391 -20.996826 -5.594760 0.000000 0.000000 0.000000 -1.014099 0.474939 0.388751 -0.914261 -11.147124 -9.581807 -2.232216 1.054686 -2.536686 21.942372 -21.334291 -68.106371 -0.986170 -21.471818 -0.579373 0.000000 0.000000 0.000000 -0.355654 0.734949 0.910254 -2.317383 0.984525 11.814976 -6.061475 -0.608201 0.058525 10.275583 29.035988 65.766935 -6.577303 11.864477 3.156235 0.000000 0.000000 0.000000 
2.425452 33.310066 -2.408836 0.000000 0.000000 0.000000 2.293572 1.701889 1.458061 -12.355120 5.867663 9.641528 28.445375 -0.801794 2.281508 -19.631849 8.033581 -18.254531 1.174602 -4.829569 0.576815 0.000000 0.000000 0.000000 2.693124 1.282529 1.438877 -10.503075 0.580000 -4.288089 29.274317 6.479140 -1.752116 -26.297603 -7.370122 12.804885 0.550184 3.398669 -6.494473 0.000000 0.000000 0.000000 2.437301 4.019475 0.771725 -0.919085 -3.180515 0.182339 -0.656678 -0.069266 0.648963 0.142701 -0.170142 -0.013604 0.000000 0.000000 0.000000 0.223940 1.989916 0.726438 2.040325 4.096889 1.776827 -10.114679 -20.294128 -5.882766 0.000000 0.000000 0.000000 -0.958130 0.584591 0.400789 -0.985533 -11.188794 -9.648048 -2.141802 1.068104 -2.499683 21.186776 -21.270597 -68.290192 -1.017343 -21.421075 -0.528514 0.000000 0.000000 0.000000 -0.282222 0.826070 0.901034 -2.313768 1.071370 11.822303 -5.695706 -0.604876 0.076756 10.492514 29.131214 65.400120 -6.427390 11.886292 2.935632 0.000000 0.000000 0.000000 
2.482504 33.279640 -2.441294 0.000000 0.000000 0.000000 2.178902 1.167536 1.354035 -12.369004 5.951312 9.350602 29.009637 -0.655514 2.613899 -19.713072 8.275455 -18.388257 0.737415 -4.892934 0.848354 0.000000 0.000000 0.000000 2.778622 0.779871 1.329733 -10.714533 0.206672 -4.272960 29.250432 6.221922 -1.748586 -26.656587 -6.997335 13.178192 1.297109 3.524314 -7.389168 0.000000 0.000000 0.000000 2.360151 3.759432 0.687230 -0.658715 -2.857270 0.132929 -0.505900 0.050148 0.648940 0.125238 -0.251580 -0.012079 0.000000 0.000000 0.000000 0.448669 2.104034 0.708061 2.075608 4.019739 2.119169 -10.087348 -19.378351 -6.062336 0.000000 0.000000 0.000000 -0.887116 0.707590 0.400250 -1.090015 -11.255896 -9.713933 -1.987490 1.043526 -2.574662 20.272220 -21.251572 -68.376607 -1.050223 -21.456635 -0.439095 0.000000 0.000000 0.000000 -0.178157 0.923128 0.891702 -2.288568 1.198886 11.788694 -5.416943 -0.614788 0.065172 10.696146 29.325540 65.063310 -6.284543 11.975825 2.653332 0.000000 0.000000 0.000000 
2.534264 33.248096 -2.489735 0.000000 0.000000 0.000000 2.211159 0.579976 1.244278 -12.506745 6.138532 8.971299 29.856977 -0.277089 3.036390 -19.972182 8.677153 -18.248049 0.153798 -4.980136 1.025439 0.000000 0.000000 0.000000 3.018475 0.370649 1.205201 -11.366860 -0.138804 -4.235462 29.098255 5.960564 -1.624677 -26.501571 -6.953880 13.888312 1.992619 3.597937 -8.379427 0.000000 0.000000 0.000000 2.420623 3.509530 0.604470 -0.289251 -2.553958 0.070295 -0.302400 0.166104 0.632553 0.099533 -0.334944 -0.001943 0.000000 0.000000 0.000000 0.723277 2.213180 0.668356 2.034568 3.940930 2.467558 -9.842970 -18.270133 -6.090851 0.000000 0.000000 0.000000 -0.795582 0.824128 0.381571 -1.218412 -11.353203 -9.798809 -1.781585 0.973676 -2.693351 19.309799 -21.284987 -68.283921 -1.119552 -21.522746 -0.335006 0.000000 0.000000 0.000000 -0.043720 1.011791 0.870917 -2.266454 1.438619 11.712256 -5.172083 -0.526546 0.008150 10.801971 29.663655 64.812519 -6.182970 12.150765 2.373682 0.000000 0.000000 0.000000 
2.568485 33.245209 -2.596807 0.000000 0.000000 0.000000 2.445469 -0.011992 1.015475 -12.898922 6.161659 8.718298 30.776938 0.267896 3.512380 -20.242027 9.276674 -18.115301 -0.002819 -5.060255 0.942333 0.000000 0.000000 0.000000 3.408015 0.047394 0.936559 -12.408212 -0.356115 -4.002788 28.755899 5.636806 -1.431339 -25.554232 -7.279887 14.737880 2.352671 3.613724 -9.208983 0.000000 0.000000 0.000000 2.738817 3.210115 0.406921 0.123303 -2.303859 0.048020 -0.079850 0.255970 0.598580 0.089372 -0.360830 0.011510 0.000000 0.000000 0.000000 1.020325 2.297505 0.595404 1.907951 3.870221 2.794633 -9.358032 -17.035223 -5.940058 0.000000 0.000000 0.000000 -0.663470 0.911550 0.335988 -1.349959 -11.469748 -9.936038 -1.577841 0.886522 -2.783231 18.280752 -21.360011 -67.993850 -1.234586 -21.517094 -0.225609 0.000000 0.000000 0.000000 0.123950 1.080013 0.828317 -2.261647 1.803760 11.621517 -5.006851 -0.438640 -0.103318 10.824972 30.132179 64.632318 -6.131474 12.371558 2.140428 0.000000 0.000000 0.000000 
2.574171 33.283813 -2.774713 0.000000 0.000000 0.000000 2.896522 -0.469847 0.574561 -13.599372 5.767866 8.776995 31.553896 0.809273 3.932207 -20.507636 10.006015 -18.257138 0.173486 -5.130981 0.642104 0.000000 0.000000 0.000000 3.895226 -0.346212 0.451538 -13.712783 -0.355823 -3.406600 28.221000 5.250909 -1.297438 -24.128847 -7.916655 15.530262 2.491426 3.554460 -9.723373 0.000000 0.000000 0.000000 3.347473 2.705625 0.001608 0.522763 -2.115527 0.103182 0.127107 0.296460 0.531398 0.099948 -0.311084 0.035704 0.000000 0.000000 0.000000 1.299279 2.340173 0.485667 1.703751 3.819464 3.086550 -8.622827 -15.733551 -5.609759 0.000000 0.000000 0.000000 -0.478468 0.949540 0.246032 -1.459074 -11.599617 -10.152502 -1.484405 0.883650 -2.850161 17.157835 -21.320325 -67.534684 -1.441736 -21.431990 -0.139915 0.000000 0.000000 0.000000 0.335329 1.121443 0.750414 -2.294640 2.288617 11.514989 -4.853311 -0.391462 -0.196096 10.801857 30.720531 64.414701 -6.125622 12.688826 1.997845 0.000000 0.000000 0.000000 
2.544002 33.309860 -2.975318 0.000000 0.000000 0.000000 3.523439 -0.937992 -0.127931 -14.575280 4.896226 9.284879 32.375694 1.183804 4.210432 -20.771901 10.756937 -18.851635 0.206826 -5.211122 0.249055 0.000000 0.000000 0.000000 4.386321 -1.037625 -0.249681 -15.337591 -0.153647 -2.452498 27.937070 4.927244 -1.278922 -22.594908 -8.582214 16.127842 2.705833 3.450332 -9.984826 0.000000 0.000000 0.000000 4.154576 1.833465 -0.614735 0.904711 -1.963126 0.238061 0.298122 0.285782 0.424764 0.124794 -0.232368 0.060789 0.000000 0.000000 0.000000 1.530253 2.331787 0.347191 1.481045 3.796954 3.357195 -7.711749 -14.373230 -5.136406 0.000000 0.000000 0.000000 -0.243259 0.928797 0.095214 -1.519215 -11.720994 -10.436404 -1.579778 0.981998 -2.913550 16.002655 -21.055180 -66.943155 -1.781995 -21.485426 -0.126456 0.000000 0.000000 0.000000 0.587805 1.125689 0.627342 -2.357036 2.856048 11.413956 -4.708154 -0.373374 -0.217939 10.800349 31.396590 64.010361 -6.135726 13.210043 1.982465 0.000000 0.000000 0.000000 
2.471852 33.247940 -3.177386 0.000000 0.000000 0.000000 4.211552 -1.607385 -1.024054 -15.655434 3.654220 10.202287 33.714982 1.380985 4.326457 -21.380963 11.573839 -19.697186 -0.129938 -5.310970 -0.198070 0.000000 0.000000 0.000000 4.768918 -2.237559 -1.074179 -17.423642 0.163982 -1.366485 28.422990 4.927032 -1.306441 -21.112058 -8.904801 16.913802 2.888179 3.384435 -10.266036 0.000000 0.000000 0.000000 4.987244 0.560664 -1.380733 1.333556 -1.827742 0.378568 0.417441 0.226733 0.274404 0.140326 -0.150459 0.056530 0.000000 0.000000 0.000000 1.705064 2.281223 0.185243 1.331571 3.813158 3.630242 -6.730993 -12.885447 -4.611277 0.000000 0.000000 0.000000 0.009715 0.858664 -0.105290 -1.516324 -11.801524 -10.735131 -1.768554 1.037448 -2.927792 14.940504 -20.484364 -66.274323 -2.234794 -22.142281 -0.192505 0.000000 0.000000 0.000000 0.858777 1.087186 0.463092 -2.416758 3.428439 11.314700 -4.587255 -0.354099 -0.231922 10.840695 32.113132 63.355995 -6.142947 14.038726 2.113938 0.000000 0.000000 0.000000 
2.346968 33.017296 -3.350410 0.000000 0.000000 0.000000 4.803802 -2.687292 -1.951969 -16.691387 2.238545 11.448235 36.087496 1.498066 4.239832 -22.843851 12.551751 -20.358405 -0.800548 -5.420142 -0.730921 0.000000 0.000000 0.000000 5.011084 -3.929185 -1.893454 -20.179895 0.534821 -0.533442 30.152676 5.552818 -1.331738 -19.672671 -8.601933 18.909343 2.484669 3.486834 -10.964684 0.000000 0.000000 0.000000 5.611249 -1.040175 -2.204169 1.896106 -1.690643 0.433220 0.516222 0.148081 0.100447 0.159330 -0.102407 0.041629 0.000000 0.000000 0.000000 1.832054 2.206799 0.024583 1.312942 3.878092 3.917738 -5.772762 -11.238726 -4.145058 0.000000 0.000000 0.000000 0.240481 0.764467 -0.328445 -1.458522 -11.844624 -10.976269 -1.850796 0.962349 -2.843658 14.101855 -19.649378 -65.572671 -2.744290 -23.817148 -0.325728 0.000000 0.000000 0.000000 1.133536 1.021975 0.279619 -2.463844 3.947945 11.205327 -4.504066 -0.317175 -0.207548 10.859792 32.740225 62.449089 -6.154530 15.314824 2.427774 0.000000 0.000000 0.000000 
